<?xml version="1.0" encoding="UTF-8" standalone="no"?>
<!-- Created with Inkscape (http://www.inkscape.org/) -->

<svg
   version="1.1"
   id="svg2"
   xml:space="preserve"
   width="816"
   height="1056"
   viewBox="0 0 816 1056"
   sodipodi:docname="cover.svg"
   inkscape:version="1.1.2 (0a00cf5339, 2022-02-04)"
   xmlns:inkscape="http://www.inkscape.org/namespaces/inkscape"
   xmlns:sodipodi="http://sodipodi.sourceforge.net/DTD/sodipodi-0.dtd"
   xmlns="http://www.w3.org/2000/svg"
   xmlns:svg="http://www.w3.org/2000/svg"><defs
     id="defs6"><clipPath
       clipPathUnits="userSpaceOnUse"
       id="clipPath26"><path
         d="M 0,0 H 612 V 792 H 0 Z"
         id="path24" /></clipPath><clipPath
       clipPathUnits="userSpaceOnUse"
       id="clipPath58"><path
         d="M 44.676,285.812 H 573.153 V 682.171 H 44.676 Z"
         id="path56" /></clipPath><clipPath
       clipPathUnits="userSpaceOnUse"
       id="clipPath13221"><path
         d="M 0,792 H 612 V 0 H 0 Z"
         id="path13219" /></clipPath><clipPath
       clipPathUnits="userSpaceOnUse"
       id="clipPath13285"><path
         d="M 74.6133,585.982 H 535.556 v -24.46 H 74.6133 Z"
         id="path13283" /></clipPath><clipPath
       clipPathUnits="userSpaceOnUse"
       id="clipPath13289"><path
         d="M 74.6133,585.982 H 535.556 v -24.46 H 74.6133 Z"
         id="path13287" /></clipPath><clipPath
       clipPathUnits="userSpaceOnUse"
       id="clipPath13313"><path
         d="M 376.696,89.668 H 538.482 V 40.9961 H 376.696 Z"
         id="path13311" /></clipPath><clipPath
       clipPathUnits="userSpaceOnUse"
       id="clipPath13431"><path
         d="m 154.09,176.322 0.273,-2.51 365.815,39.605 -0.271,2.51 z"
         id="path13429" /></clipPath><clipPath
       clipPathUnits="userSpaceOnUse"
       id="clipPath13447"><path
         d="m 146.753,244.089 0.273,-2.511 365.816,39.606 -0.271,2.51 z"
         id="path13445" /></clipPath><clipPath
       clipPathUnits="userSpaceOnUse"
       id="clipPath13463"><path
         d="m 139.28,313.11 0.272,-2.509 365.817,39.605 -0.271,2.509 z"
         id="path13461" /></clipPath><clipPath
       clipPathUnits="userSpaceOnUse"
       id="clipPath13479"><path
         d="m 131.808,382.133 0.271,-2.511 365.817,39.606 -0.272,2.51 z"
         id="path13477" /></clipPath><clipPath
       clipPathUnits="userSpaceOnUse"
       id="clipPath13495"><path
         d="m 124.471,449.899 0.272,-2.509 365.816,39.605 -0.272,2.51 z"
         id="path13493" /></clipPath><clipPath
       clipPathUnits="userSpaceOnUse"
       id="clipPath13511"><path
         d="m 128.194,461.224 31.604,-291.902 2.51,0.27 -31.604,291.903 z"
         id="path13509" /></clipPath><clipPath
       clipPathUnits="userSpaceOnUse"
       id="clipPath13527"><path
         d="m 216.04,470.734 31.604,-291.902 2.51,0.272 -31.603,291.902 z"
         id="path13525" /></clipPath><clipPath
       clipPathUnits="userSpaceOnUse"
       id="clipPath13543"><path
         d="m 302.632,480.109 31.604,-291.902 2.509,0.272 -31.604,291.902 z"
         id="path13541" /></clipPath><clipPath
       clipPathUnits="userSpaceOnUse"
       id="clipPath13559"><path
         d="m 390.478,489.62 31.603,-291.903 2.511,0.273 -31.603,291.902 z"
         id="path13557" /></clipPath><clipPath
       clipPathUnits="userSpaceOnUse"
       id="clipPath13575"><path
         d="m 478.324,499.131 31.603,-291.902 2.51,0.272 -31.603,291.902 z"
         id="path13573" /></clipPath><clipPath
       clipPathUnits="userSpaceOnUse"
       id="clipPath13587"><path
         d="M 0,792 H 612 V 0 H 0 Z"
         id="path13585" /></clipPath></defs><sodipodi:namedview
     id="namedview4"
     pagecolor="#ffffff"
     bordercolor="#666666"
     borderopacity="1.0"
     inkscape:pageshadow="2"
     inkscape:pageopacity="0.0"
     inkscape:pagecheckerboard="0"
     showgrid="false"
     showguides="true"
     inkscape:guide-bbox="true"
     inkscape:zoom="0.86245599"
     inkscape:cx="380.30926"
     inkscape:cy="336.82878"
     inkscape:window-width="1920"
     inkscape:window-height="1051"
     inkscape:window-x="1680"
     inkscape:window-y="0"
     inkscape:window-maximized="1"
     inkscape:current-layer="g10"><sodipodi:guide
       position="91.921331,61.489332"
       orientation="1,0"
       id="guide21085" /><sodipodi:guide
       position="91.921331,61.489332"
       orientation="0,-1"
       id="guide21087" /><sodipodi:guide
       position="1.02e-05,0"
       orientation="1,0"
       id="guide21295" /><sodipodi:guide
       position="724.07868,133.74088"
       orientation="1,0"
       id="guide21297" /><sodipodi:guide
       position="91.921348,922.25909"
       orientation="0,-1"
       id="guide21299" /></sodipodi:namedview><g
     id="g8"
     inkscape:groupmode="layer"
     inkscape:label="cover"
     transform="matrix(1.3333333,0,0,1.3333333,0,2.64e-5)"><g
       id="g10"><rect
         style="fill:#00204e;fill-opacity:1;stroke-width:1.58381"
         id="rect488"
         width="612"
         height="792"
         x="7.65e-06"
         y="-1.9073486e-05" /><g
         id="g21498"
         style="fill:#e9e9f2"><g
           id="g2702"><path
             d="m 68.941,744.609 h 1.262 v -7.816 h -1.262 v -1.277 h 4.098 v 1.277 h -1.406 v 7.832 h 3.281 v -1.531 h 1.371 v 2.789 h -7.344 z"
             style="fill:#e9e9f2;fill-opacity:1;fill-rule:nonzero;stroke:none"
             id="path30" /><path
             d="m 78.371,741.914 h 3.797 c -0.063,-1.086 -0.723,-1.828 -1.875,-1.828 -0.914,0 -1.746,0.598 -1.922,1.828 m 0,1.008 c 0.191,1.293 1.137,1.922 2.461,1.922 0.863,0 1.606,-0.266 2.41,-0.723 l -0.109,1.242 c -0.711,0.446 -1.578,0.649 -2.508,0.649 -2.191,0 -3.672,-1.418 -3.672,-3.5 0,-1.907 1.309,-3.543 3.371,-3.543 2.098,0 3.199,1.496 3.199,3.23 0,0.25 -0.031,0.52 -0.062,0.723 z"
             style="fill:#e9e9f2;fill-opacity:1;fill-rule:nonzero;stroke:none"
             id="path32" /><path
             d="m 88.613,744.184 v -1.106 c -0.457,-0.125 -1.039,-0.234 -1.652,-0.234 -0.961,0 -1.496,0.457 -1.496,1.117 0,0.617 0.457,1.027 1.246,1.027 0.723,0 1.383,-0.347 1.902,-0.804 m -4.519,-0.11 c 0,-1.246 1.101,-2.051 2.664,-2.051 0.707,0 1.496,0.161 1.855,0.27 v -0.773 c 0,-0.395 -0.109,-0.708 -0.297,-0.946 -0.285,-0.344 -0.757,-0.519 -1.418,-0.519 -0.425,0 -0.679,0.093 -0.882,0.203 0.046,0.113 0.078,0.254 0.078,0.379 0,0.441 -0.332,0.773 -0.789,0.773 -0.469,0 -0.801,-0.332 -0.801,-0.805 0,-0.804 0.883,-1.636 2.613,-1.636 1.059,0 1.828,0.316 2.285,0.851 0.348,0.41 0.52,0.942 0.52,1.559 v 3.371 h 1.058 v 1.133 h -2.332 v -0.817 c -0.554,0.52 -1.418,0.946 -2.332,0.946 -1.246,0 -2.222,-0.711 -2.222,-1.938"
             style="fill:#e9e9f2;fill-opacity:1;fill-rule:nonzero;stroke:none"
             id="path34" /><path
             d="m 93.762,740.277 c 0.644,-0.695 1.496,-1.308 2.472,-1.308 0.852,0 1.434,0.328 1.782,0.867 0.218,0.379 0.343,0.848 0.343,1.418 v 3.496 h 1.059 v 1.133 h -3.422 v -1.133 h 1.012 v -3.199 c 0,-0.332 -0.051,-0.598 -0.16,-0.801 -0.188,-0.363 -0.52,-0.535 -1.008,-0.535 -0.742,0 -1.449,0.437 -2.031,1.023 v 3.512 h 1.007 v 1.133 h -3.402 v -1.133 h 1.055 v -4.492 h -1.055 v -1.164 h 2.348 z"
             style="fill:#e9e9f2;fill-opacity:1;fill-rule:nonzero;stroke:none"
             id="path36" /><path
             d="m 105.594,742.465 c 0,-1.418 -0.867,-2.317 -2.02,-2.317 -0.769,0 -1.351,0.364 -1.855,0.868 v 3.168 c 0.472,0.378 1.07,0.644 1.824,0.644 1.152,0 2.051,-0.93 2.051,-2.363 m -6.289,5.375 h 1.058 v -7.578 h -1.058 v -1.168 h 2.347 v 0.883 c 0.571,-0.582 1.2,-1.008 2.176,-1.008 1.781,0 3.168,1.418 3.168,3.48 0,1.953 -1.371,3.563 -3.293,3.563 -0.773,0 -1.449,-0.285 -1.984,-0.727 v 2.555 h 1.211 v 1.133 h -3.625 z"
             style="fill:#e9e9f2;fill-opacity:1;fill-rule:nonzero;stroke:none"
             id="path38" /><path
             d="m 108.578,745.113 c -0.207,-0.379 -0.316,-0.836 -0.316,-1.386 v -3.469 h -1.055 v -1.164 h 2.395 v 4.332 c 0,0.347 0.062,0.617 0.171,0.82 0.192,0.363 0.504,0.52 0.993,0.52 0.742,0 1.433,-0.457 2.035,-1.024 v -3.484 h -1.086 v -1.164 h 2.441 v 5.656 h 1.055 v 1.133 h -2.363 v -1.18 c -0.649,0.692 -1.496,1.309 -2.473,1.309 -0.867,0 -1.449,-0.348 -1.797,-0.899"
             style="fill:#e9e9f2;fill-opacity:1;fill-rule:nonzero;stroke:none"
             id="path40" /><path
             d="m 121.371,742.48 c 0,-1.433 -0.898,-2.332 -2.078,-2.332 -0.773,0 -1.402,0.364 -1.906,0.868 v 3.168 c 0.488,0.363 1.101,0.644 1.875,0.644 1.148,0 2.109,-0.879 2.109,-2.348 m -4.113,2.727 -0.344,0.695 h -0.883 v -10.386 h -1.074 v -1.164 h 2.43 v 5.578 c 0.535,-0.535 1.179,-0.961 2.172,-0.961 1.781,0 3.214,1.433 3.214,3.511 0,1.954 -1.418,3.532 -3.355,3.532 -0.867,0 -1.574,-0.317 -2.16,-0.805"
             style="fill:#e9e9f2;fill-opacity:1;fill-rule:nonzero;stroke:none"
             id="path42" /><path
             d="m 101.789,725.141 c -0.191,-0.008 -0.379,-0.012 -0.566,-0.012 -1.993,0 -3.797,0.492 -5.368,1.461 -1.566,-0.969 -3.371,-1.461 -5.363,-1.461 -0.699,0 -1.41,0.051 -2.117,0.156 -1.203,0.172 -2.426,0.512 -3.637,1.012 l -0.691,0.281 1.641,-13.48 c 1.414,-0.602 3.199,-0.957 4.804,-0.957 2.086,0 3.828,0.687 5.188,2.043 l 0.175,0.179 0.18,-0.179 c 1.309,-1.305 2.977,-1.989 4.961,-2.039 z m 4.996,1.625 c -1.176,-0.485 -2.355,-0.813 -3.515,-0.981 -0.684,-0.097 -1.372,-0.148 -2.047,-0.148 -1.922,0 -3.661,0.48 -5.164,1.425 l -0.204,0.126 -0.199,-0.126 c -1.504,-0.945 -3.242,-1.425 -5.164,-1.425 -0.676,0 -1.363,0.051 -2.047,0.148 -1.16,0.168 -2.343,0.496 -3.515,0.981 l -1.489,0.613 1.778,-14.629 0.133,-0.059 c 1.496,-0.66 3.418,-1.058 5.14,-1.058 2.133,0 3.938,0.679 5.363,2.019 1.43,-1.34 3.235,-2.019 5.368,-2.019 1.718,0 3.644,0.398 5.14,1.058 l 0.133,0.059 1.777,14.629 z m 1.531,-15.286 c -0.984,-0.554 -3.578,-1.808 -6.91,-1.808 -2.988,0 -4.691,0.922 -5.551,1.512 -0.855,-0.59 -2.558,-1.512 -5.546,-1.512 -3.332,0 -5.926,1.254 -6.914,1.808 l -2.211,18.235 h 0.066 c 1.25,0 2.48,-0.289 3.613,-0.82 1.266,-0.598 3.254,-1.297 5.629,-1.297 2.891,0 4.535,1.289 5.363,2.117 0.833,-0.828 2.477,-2.117 5.368,-2.117 2.375,0 4.363,0.699 5.629,1.297 1.128,0.531 2.363,0.82 3.613,0.82 h 0.066 z"
             style="fill:#e9e9f2;fill-opacity:1;fill-rule:nonzero;stroke:none"
             id="path44" /></g></g><g
         id="g26658"
         transform="translate(1e-5,-7.5485487)"><g
           id="g153273"><text
             xml:space="preserve"
             style="font-size:42px;line-height:1.25;font-family:sans-serif;fill:#e9e9f2;fill-opacity:1;stroke-width:0.75"
             x="305.82568"
             y="99.027763"
             id="text22712"><tspan
               sodipodi:role="line"
               style="font-style:normal;font-variant:normal;font-weight:600;font-stretch:normal;font-size:42px;font-family:'Roboto Slab';-inkscape-font-specification:'Roboto Slab Semi-Bold';text-align:center;text-anchor:middle;fill:#e9e9f2;fill-opacity:1;stroke-width:0.75"
               x="305.82568"
               y="99.027763"
               id="tspan7182">Leanpub Quarto </tspan><tspan
               sodipodi:role="line"
               style="font-style:normal;font-variant:normal;font-weight:600;font-stretch:normal;font-size:42px;font-family:'Roboto Slab';-inkscape-font-specification:'Roboto Slab Semi-Bold';text-align:center;text-anchor:middle;fill:#e9e9f2;fill-opacity:1;stroke-width:0.75"
               x="305.82568"
               y="151.93286"
               id="tspan13937">Template</tspan></text><text
             xml:space="preserve"
             style="font-size:20px;line-height:1.25;font-family:sans-serif;fill:#e9e9f2;fill-opacity:1;stroke-width:0.75"
             x="305.98828"
             y="201.43092"
             id="text29256"><tspan
               sodipodi:role="line"
               id="tspan29254"
               style="font-style:normal;font-variant:normal;font-weight:600;font-stretch:normal;font-size:20px;font-family:'Roboto Slab';-inkscape-font-specification:'Roboto Slab Semi-Bold';text-align:center;text-anchor:middle;fill:#e9e9f2;fill-opacity:1;stroke-width:0.75"
               x="305.98828"
               y="201.43092">To write ebooks in Quarto and publish</tspan><tspan
               sodipodi:role="line"
               style="font-style:normal;font-variant:normal;font-weight:600;font-stretch:normal;font-size:20px;font-family:'Roboto Slab';-inkscape-font-specification:'Roboto Slab Semi-Bold';text-align:center;text-anchor:middle;fill:#e9e9f2;fill-opacity:1;stroke-width:0.75"
               x="305.98828"
               y="226.62383"
               id="tspan18085">them in Leanpub</tspan></text><text
             xml:space="preserve"
             style="font-size:20px;line-height:1.25;font-family:sans-serif;fill:#e9e9f2;fill-opacity:1;stroke-width:0.75"
             x="478.38837"
             y="742.35443"
             id="text688"><tspan
               sodipodi:role="line"
               id="tspan686"
               style="font-style:normal;font-variant:normal;font-weight:600;font-stretch:normal;font-size:20px;font-family:'Roboto Slab';-inkscape-font-specification:'Roboto Slab Semi-Bold';text-align:center;text-anchor:middle;fill:#e9e9f2;fill-opacity:1;stroke-width:0.75"
               x="478.38837"
               y="742.35443">Your R. Name</tspan></text></g><text
           xml:space="preserve"
           style="font-size:60px;line-height:1.25;font-family:sans-serif;stroke-width:0.75"
           x="451.50134"
           y="386.43088"
           id="text50092"><tspan
             sodipodi:role="line"
             id="tspan50090"
             style="stroke-width:0.75"
             x="451.50134"
             y="386.43088" /></text><text
           xml:space="preserve"
           style="font-size:38.8993px;line-height:1.25;font-family:sans-serif;fill:#1b248f;stroke-width:0.486242"
           x="415.66"
           y="529.8559"
           id="text96918"
           transform="rotate(1.570756)"><tspan
             sodipodi:role="line"
             id="tspan96916"
             style="font-style:normal;font-variant:normal;font-weight:normal;font-stretch:normal;font-family:'Comic Sans MS';-inkscape-font-specification:'Comic Sans MS';fill:#1b248f;stroke-width:0.486242"
             x="415.66"
             y="529.8559" /></text></g></g></g></svg>
